<?xml version="1.0" encoding="UTF-8" standalone="no"?>
<svg
   version="1.1"
   id="svg1171"
   xml:space="preserve"
   width="118.838"
   height="40"
   xmlns:inkscape="http://www.inkscape.org/namespaces/inkscape"
   xmlns:sodipodi="http://sodipodi.sourceforge.net/DTD/sodipodi-0.dtd"
   xmlns="http://www.w3.org/2000/svg"
   xmlns:svg="http://www.w3.org/2000/svg"><defs
     id="defs1175" /><sodipodi:namedview
     id="namedview1173"
     pagecolor="#ffffff"
     bordercolor="#666666"
     borderopacity="1.0"
     inkscape:showpageshadow="2"
     inkscape:pageopacity="0.0"
     inkscape:pagecheckerboard="0"
     inkscape:deskcolor="#d1d1d1" /><inkscape:clipboard
     min="193.06596,400.80827"
     max="311.90395,440.80827"
     geom-min="193.06596,400.80827"
     geom-max="311.90395,440.80827" /><g
     id="g1177"
     transform="matrix(3.7795276,0,0,3.7795276,-193.06596,-400.80827)"><rect
       width="10.583333"
       height="10.583333"
       rx="2.4612415"
       fill="#ec5d42"
       id="rect1049"
       x="51.082035"
       y="106.04719"
       style="stroke-width:0.264583" /><path
       d="m 60.048498,111.33398 c -0.03982,0.30766 -0.152426,0.54301 -0.240189,0.68945 -0.31316,0.52459 -0.881962,0.87093 -1.532281,0.87853 -0.563033,0.007 -1.12649,-0.003 -1.689523,-0.006 -0.133112,-9.3e-4 -0.136102,-0.003 -0.135202,-0.13311 0.0048,-0.58582 0.0023,-1.17211 0.02029,-1.7575 0.0057,-0.19042 0.04075,-0.36798 0.102208,-0.53284 0.02717,-0.0728 0.168328,-0.43754 0.537025,-0.73943 0.620369,-0.508 1.361625,-0.41037 1.43166,-0.4 0.178012,0.0265 0.567161,0.11168 0.921332,0.42648 0.0753,0.067 0.309986,0.28737 0.462413,0.6595 0.08406,0.2045 0.172693,0.52734 0.122263,0.91538 z"
       fill="#ffffff"
       id="path1051"
       style="stroke-width:0.264583" /><path
       d="m 54.173743,112.88682 c -0.405977,-0.058 -0.680937,-0.24064 -0.766831,-0.30144 -0.08751,-0.0619 -0.413581,-0.3049 -0.602872,-0.76086 -0.226595,-0.54528 -0.10731,-1.03349 -0.06701,-1.18914 0.03776,-0.14507 0.08336,-0.25125 0.09879,-0.28303 0.339201,-0.69498 0.920649,-1.01968 1.681274,-1.03118 0.536098,-0.008 1.072409,0.004 1.608746,0.003 0.0875,-2.2e-4 0.10914,0.0302 0.108452,0.11353 -0.0044,0.57065 0.0088,1.14149 -0.0085,1.71146 -0.009,0.29911 -0.07739,0.57131 -0.206348,0.81311 -0.160258,0.30073 -0.378327,0.49165 -0.518583,0.59389 -0.584227,0.42579 -1.228302,0.34427 -1.327097,0.33022 z"
       fill="#ffffff"
       id="path1053"
       style="stroke-width:0.264583" /><path
       d="m 64.293209,113.98468 v -5.18583 h 1.940983 c 0.419815,0 0.768006,0.0716 1.044575,0.21484 0.276569,0.14322 0.481542,0.33584 0.614892,0.57785 0.13335,0.24202 0.200025,0.51859 0.200025,0.82974 0,0.28646 -0.06421,0.55067 -0.192617,0.79269 -0.128402,0.24201 -0.330914,0.43955 -0.607483,0.59266 -0.276569,0.14817 -0.629708,0.22225 -1.059392,0.22225 h -0.940858 v 1.9558 z m 1.000125,-2.7633 h 0.881592 c 0.321019,0 0.550677,-0.0716 0.688975,-0.21485 0.143219,-0.14816 0.214841,-0.34324 0.214841,-0.58525 0,-0.25683 -0.07162,-0.45437 -0.214841,-0.59267 -0.138298,-0.14322 -0.367956,-0.21484 -0.688975,-0.21484 h -0.881592 z m 4.319455,2.8522 c -0.31115,0 -0.567954,-0.0494 -0.770466,-0.14816 -0.202486,-0.10372 -0.353113,-0.23953 -0.451909,-0.40746 -0.09382,-0.17285 -0.140758,-0.36301 -0.140758,-0.57044 0,-0.2272 0.05681,-0.42722 0.170392,-0.60008 0.118533,-0.17285 0.293872,-0.30869 0.525991,-0.40746 0.237067,-0.0988 0.5334,-0.14816 0.889,-0.14816 h 0.926042 c 0,-0.18275 -0.02469,-0.33338 -0.07408,-0.45191 -0.04937,-0.12348 -0.125942,-0.21484 -0.229659,-0.27411 -0.103716,-0.0593 -0.241988,-0.0889 -0.414866,-0.0889 -0.187669,0 -0.348192,0.042 -0.481542,0.12594 -0.128405,0.079 -0.207436,0.20249 -0.23707,0.37042 h -0.970491 c 0.02471,-0.2667 0.111125,-0.49636 0.259291,-0.68898 0.153115,-0.19756 0.35314,-0.35065 0.600075,-0.45931 0.251884,-0.10867 0.53094,-0.16299 0.837142,-0.16299 0.350679,0 0.65442,0.0593 0.911225,0.1778 0.256831,0.11854 0.454395,0.28893 0.592667,0.51118 0.138297,0.22225 0.207433,0.49636 0.207433,0.82232 v 2.3114 h -0.84455 l -0.111125,-0.57044 c -0.05432,0.0988 -0.118533,0.18767 -0.192617,0.2667 -0.07408,0.079 -0.160496,0.14817 -0.259291,0.20744 -0.09877,0.0593 -0.209894,0.10371 -0.333375,0.13335 -0.123455,0.0346 -0.259292,0.0519 -0.407459,0.0519 z m 0.237067,-0.77046 c 0.128429,0 0.242014,-0.0222 0.340783,-0.0667 0.103717,-0.0494 0.192617,-0.11358 0.2667,-0.19261 0.07408,-0.084 0.13089,-0.1778 0.170392,-0.28152 0.04445,-0.10866 0.07408,-0.22471 0.0889,-0.34819 v -0.007 h -0.763058 c -0.153088,0 -0.27903,0.0198 -0.377825,0.0593 -0.09382,0.0346 -0.162984,0.0864 -0.207434,0.15558 -0.04445,0.0691 -0.06668,0.14817 -0.06668,0.23707 0,0.0988 0.02222,0.18026 0.06668,0.24447 0.04445,0.0642 0.108665,0.11359 0.192617,0.14817 0.08398,0.0346 0.180287,0.0519 0.288925,0.0519 z m 2.6221,0.68156 v -5.334 h 1.000125 v 5.334 z m 1.752812,0 v -5.334 h 1.000125 v 5.334 z m 3.545522,0.0889 c -0.375232,0 -0.708607,-0.079 -0.999992,-0.23706 -0.286465,-0.16299 -0.511175,-0.3877 -0.674159,-0.67416 -0.158062,-0.29139 -0.237066,-0.62725 -0.237066,-1.00753 0,-0.39018 0.079,-0.73343 0.237066,-1.02976 0.158036,-0.30128 0.380286,-0.53586 0.66675,-0.70379 0.291386,-0.17286 0.627221,-0.2593 1.007401,-0.2593 0.370417,0 0.694002,0.0815 0.970492,0.24448 0.276754,0.16298 0.491596,0.38277 0.644525,0.65934 0.153194,0.27657 0.229658,0.59021 0.229658,0.94086 0,0.0494 0,0.10618 0,0.17039 0,0.0593 -0.0048,0.121 -0.01482,0.18521 h -3.029872 v -0.60748 h 2.037159 c -0.01482,-0.24202 -0.101071,-0.43215 -0.259292,-0.57045 -0.152929,-0.13829 -0.345546,-0.20743 -0.57785,-0.20743 -0.167746,0 -0.323374,0.0395 -0.466592,0.11853 -0.143246,0.0741 -0.256832,0.19016 -0.340784,0.3482 -0.07903,0.15803 -0.118533,0.35806 -0.118533,0.60007 v 0.21484 c 0,0.20249 0.03704,0.38029 0.111125,0.5334 0.079,0.14817 0.187669,0.26424 0.325967,0.34819 0.138271,0.079 0.298846,0.11854 0.481409,0.11854 0.182827,0 0.333375,-0.0395 0.451908,-0.11854 0.123561,-0.079 0.214842,-0.18026 0.274109,-0.30374 h 1.02235 c -0.06906,0.23212 -0.185209,0.44204 -0.348192,0.62971 -0.162983,0.18767 -0.363008,0.33584 -0.600075,0.4445 -0.237067,0.10867 -0.501121,0.16298 -0.792692,0.16298 z m 4.072731,-0.0889 c -0.261937,0 -0.491595,-0.0395 -0.688975,-0.11853 -0.192616,-0.084 -0.343429,-0.21979 -0.451908,-0.40746 -0.108744,-0.19261 -0.162983,-0.45437 -0.162983,-0.78528 v -1.58538 h -0.637117 v -0.83715 h 0.637117 l 0.111125,-1.01494 h 0.889 v 1.01494 h 0.985308 v 0.83715 H 81.53928 v 1.6002 c 0,0.16793 0.03704,0.28397 0.111125,0.34819 0.07408,0.0642 0.200025,0.0963 0.377825,0.0963 h 0.48895 v 0.85195 z"
       fill="#ffffff"
       id="path1055"
       style="stroke-width:0.264583" /></g></svg>
